<?xml version="1.0" encoding="iso-8859-1"?>
<!-- Generator: Adobe Illustrator 24.3.0, SVG Export Plug-In . SVG Version: 6.00 Build 0)  -->
<svg version="1.1" xmlns="http://www.w3.org/2000/svg" xmlns:xlink="http://www.w3.org/1999/xlink" x="0px" y="0px"
	 viewBox="0 0 595.276 753.424" style="enable-background:new 0 0 595.276 753.424;" xml:space="preserve">
<g id="Livello_1">
	<g>
		<path style="fill:#6A131A;" d="M595.276,294.572c-1.84,74.589-27.643,141.48-64.649,204.664
			c-55.042,93.978-127.616,173.411-210.218,244.238c-14.569,12.492-30.657,13.448-44.439,1.58
			C176.34,659.263,89.58,563.132,34.745,442.511C0.293,366.728-11.683,288.297,13.792,207.006
			C54.522,77.033,179.712-7.928,317.739,0.586c132.997,8.204,246.899,108.826,270.853,239.76
			C591.865,258.234,593.098,276.488,595.276,294.572z M298.199,150.577c-61.53-0.047-111.138,48.175-111.37,108.256
			c-0.231,60.01,49.354,108.779,110.716,108.893c60.312,0.112,109.823-48.6,110.025-108.25
			C407.774,199.908,358.274,150.623,298.199,150.577z"/>
	</g>
	<path style="fill:#FFFFFF;stroke:#6A131A;stroke-width:3;" d="M302.312,60.328c126.679,0.097,231.057,105.082,230.63,231.971
		c-0.428,127.064-104.831,230.829-232.008,230.59c-129.392-0.243-233.952-104.129-233.465-231.96
		C67.957,162.947,172.565,60.228,302.312,60.328z"/>
</g>
<g id="museo" style="display:none;">
	<g style="display:inline;">
		<path d="M305.22,217.344c-24.694,0-49.388,0.008-74.082-0.002c-26.008-0.01-52.016-0.054-78.024-0.034
			c-3.122,0.002-5.583-1.027-6.452-4.107c-0.945-3.348,0.914-5.497,3.762-7.059c27.509-15.091,55.015-30.189,82.499-45.326
			c22.372-12.322,44.75-24.635,67.035-37.113c3.757-2.104,6.815-2.048,10.567,0.045c38.11,21.264,76.296,42.391,114.47,63.538
			c10.47,5.8,20.975,11.537,31.459,17.313c1.277,0.704,2.485,1.54,3.788,2.188c2.652,1.32,4.174,3.32,3.396,6.316
			c-0.812,3.126-3.201,4.356-6.31,4.321c-3.214-0.036-6.428-0.137-9.642-0.134c-46.028,0.038-92.056,0.088-138.084,0.135
			c-1.461,0.001-2.921,0-4.382,0C305.22,217.399,305.22,217.371,305.22,217.344z M279.545,172.215
			c-0.023,14.275,11.409,25.699,25.914,25.895c13.425,0.182,25.196-11.811,25.218-25.696c0.022-13.986-11.521-25.907-25.03-25.85
			C291.053,146.626,279.568,157.914,279.545,172.215z"/>
		<path d="M305.278,421.064c24.539,0,49.078,0.006,73.617-0.002c24.976-0.008,49.953-0.031,74.929-0.048
			c1.169-0.001,2.338-0.013,3.506-0.011c6.844,0.011,8.472,1.768,8.327,8.618c-0.263,12.412,0.758,13.223-13.146,13.212
			c-31.264-0.026-62.528-0.084-93.792-0.098c-48.501-0.021-97.001-0.031-145.502-0.013c-20.012,0.008-40.024,0.108-60.036,0.154
			c-7.361,0.017-8.615-1.255-8.628-8.626c-0.023-12.966-0.123-13.183,12.609-13.179c24.685,0.008,49.371,0.027,74.056,0.032
			c24.686,0.006,49.373,0.001,74.059,0.001C305.278,421.091,305.278,421.078,305.278,421.064z"/>
		<path d="M376.012,253.385c17.702,0,35.007,0,52.615,0c0,43.903,0,87.48,0,131.488c-17.384,0-34.8,0-52.615,0
			C376.012,341.177,376.012,297.601,376.012,253.385z"/>
		<path d="M181.673,253.303c17.669,0,34.857,0,52.33,0c0,43.942,0,87.672,0,131.702c-17.43,0-34.714,0-52.33,0
			C181.673,341.047,181.673,297.228,181.673,253.303z"/>
		<path d="M331.359,385.032c-17.555,0-34.841,0-52.488,0c0-43.857,0-87.44,0-131.492c17.451,0,34.832,0,52.488,0
			C331.359,297.378,331.359,341.073,331.359,385.032z"/>
		<path d="M305.266,224.464c24.829,0,49.657-0.003,74.486,0.001c20.302,0.003,40.605,0.008,60.907,0.027
			c6.558,0.006,7.788,1.227,8.125,7.902c0.669,13.241,0.17,13.758-13.189,13.758c-34.174,0-68.347,0.033-102.521-0.005
			c-40.014-0.045-80.028-0.157-120.042-0.228c-14.749-0.026-29.498,0.012-44.247-0.041c-5.978-0.021-7.353-1.52-7.403-7.607
			c-0.02-2.483-0.14-4.966-0.116-7.447c0.043-4.461,1.899-6.427,6.411-6.433c21.179-0.03,42.358,0.027,63.538,0.036
			c24.684,0.01,49.368,0.002,74.052,0.002C305.266,224.441,305.266,224.453,305.266,224.464z"/>
		<path d="M304.669,414.044c-24.827,0-49.654-0.007-74.481,0.002c-20.738,0.007-41.475,0.063-62.213,0.029
			c-4.989-0.008-6.687-1.927-6.673-7.063c0.007-2.483,0.027-4.965,0.072-7.447c0.095-5.245,1.499-6.885,6.694-6.955
			c12.555-0.168,25.112-0.18,37.669-0.2c25.259-0.04,50.518-0.08,75.777-0.053c25.551,0.027,51.102,0.196,76.653,0.191
			c27.304-0.006,54.609-0.15,81.913-0.216c7.324-0.018,8.773,1.421,8.836,8.571c0.121,13.889-1.49,13.097-12.809,13.076
			c-43.812-0.08-87.624-0.033-131.436-0.033C304.669,413.979,304.669,414.011,304.669,414.044z"/>
	</g>
</g>
<g id="agriturismo" style="display:none;">
	<g style="display:inline;">
		<path d="M264.946,317.744c17.616-0.474,32.999-5.354,46.105-16.371c14.799-12.441,24.301-28.333,24.784-47.546
			c0.934-37.188,0.273-74.416,0.273-112.165c-50.421,0-100.721,0-151.821,0c-0.125,2.297-0.375,4.778-0.377,7.26
			c-0.028,32.032-0.04,64.064-0.019,96.096c0.027,40.928,27.517,70.057,68.383,72.512c0.636,0.038,1.265,0.201,2.469,0.401
			c0.159,1.769,0.466,3.619,0.471,5.47c0.041,15.15,0.17,30.302,0.001,45.451c-0.449,40.299-34.312,73.91-74.52,74.09
			c-0.608,0.003-1.216-0.273-2.31-0.535c0-5.916,0-11.853,0-17.984c4.852-0.695,9.804-1.055,14.589-2.149
			c23.82-5.446,42.851-29.27,43.09-53.806c0.107-11.007,0.018-22.015,0.018-32.656c-7.445-2.794-14.598-4.736-21.061-8.031
			c-31.098-15.856-48.997-41.314-49.992-76.258c-1.194-41.954-0.304-83.967-0.303-125.955c0-0.852,0.161-1.703,0.301-3.09
			c63.325,0,126.579,0,190.593,0c0,2.496,0,4.805,0,7.114c0.003,38.309-0.009,76.617,0.014,114.926
			c0.027,44.349-25.502,77.958-68.235,89.773c-0.818,0.226-1.64,0.442-3.315,0.892c1.546,18.655-3.444,37.787,5.733,55.948
			c9.898,19.588,25.134,30.908,47.199,32.641c1.499,0.118,2.995,0.276,4.896,0.452c0,6.062,0,12.002,0,18.552
			c-17.676,0.283-33.495-4.009-46.819-14.914c-19.223-15.733-29.983-36.03-30.129-61.298
			C264.871,350.567,264.946,334.571,264.946,317.744z"/>
		<path d="M410.763,442.741c-6.555,0-12.301,0-18.538,0c0-62.676,0-125.084,0-187.894c1.317-0.305,2.717-0.661,4.13-0.952
			c13.695-2.821,22.22-12.979,22.262-27.06c0.098-32.236,0.033-64.473,0.034-96.709c0-2.355,0-4.71,0-7.629
			c6.364,0,12.27,0,18.868,0c0.106,2.206,0.308,4.485,0.31,6.764c0.02,32.237-0.148,64.474,0.072,96.709
			c0.128,18.788-7.539,32.768-23.615,42.548c-2.028,1.233-3.37,5.199-3.38,7.905c-0.194,52.789-0.143,105.58-0.143,158.37
			C410.763,437.322,410.763,439.85,410.763,442.741z"/>
		<path d="M365.128,122.252c6.292,0,12.045,0,18.265,0c0,28.961,0,57.61,0,86.768c-6.032,0-11.922,0-18.265,0
			C365.128,180.227,365.128,151.565,365.128,122.252z"/>
		<path d="M392.146,122.304c6.354,0,12.089,0,18.222,0c0,28.996,0,57.62,0,86.733c-6.018,0-11.911,0-18.222,0
			C392.146,180.194,392.146,151.58,392.146,122.304z"/>
	</g>
</g>
<g id="vigneto">
	<g>
		<path d="M338.194,206.25c-8.708-1.298-14.763-5.522-19.487-13.034c-0.684,4.773-1.256,8.757-1.829,12.758
			c-12.042-2.118-22.717-16.021-20.148-26.666c0.846-3.505,4.248-6.364,6.355-9.601c1.618-2.486,4.219-5.087,4.252-7.663
			c0.042-3.302-3.134-4.754-6.683-5.48c-2.041-0.418-4.126-2.811-5.318-4.831c-6.425-10.889-1.302-30.055,10.338-37.351
			c1.363,2.601,2.939,5.071,3.982,7.748c1.058,2.714,1.59,5.633,2.063,7.387c3.077-5.786,6.445-12.117,9.813-18.449
			c0.872,0.071,1.745,0.143,2.617,0.214c1.465,4.272,2.93,8.544,4.395,12.819c3.022-2.391,6.717-5.315,11.042-8.737
			c1.005,2.757,1.811,4.965,2.484,6.812c8.263-1.71,16.596-3.435,26.259-5.435c-5.237,11.468-13.055,18.252-21.013,23.594
			c14.039,3.596,28.642,7.337,44.018,11.276c-11.15,12.191-23.001,23.069-41.17,26.012c8.094,5.108,13.517,11.726,17.127,20.315
			c-9.95,3.8-19.689,5.144-30.248,3.725C337.41,203.131,337.732,204.413,338.194,206.25z M360.415,161.413
			c-12.099,2.459-40.683,2.193-46.438-1.133c3.772-4.972,7.506-9.894,11.241-14.817c-0.231-0.187-0.461-0.373-0.692-0.56
			c-3.693,4.16-7.386,8.319-11.672,13.147c1.069-5.949,1.973-10.976,2.876-16.004c-0.237-0.055-0.474-0.11-0.71-0.165
			c-1.508,5.308-3.016,10.616-4.948,17.416c-2-5.488-3.512-9.635-5.393-14.797c0.047,10.305,7.941,18.72,3.566,28.574
			c0.635-1.917,1.27-3.834,2.119-6.396c4.647,7.254,9.764,12.881,17.1,16.023c-5.339-4.834-11.166-9.202-14.082-16.782
			C329.753,165.979,345.463,166.707,360.415,161.413z"/>
		<path d="M281.391,258.065c16.402-0.098,29.377,12.681,29.412,28.967c0.035,16.254-12.998,29.437-29.112,29.445
			c-15.926,0.008-29.064-13.009-29.161-28.893C252.429,271.095,265.073,258.162,281.391,258.065z M300.865,272.328
			c-7.732-10.41-21.439-12.744-32.132-6.227c-11.166,6.805-14.633,22.109-9.433,30.245
			C262.615,273.508,281.469,264.53,300.865,272.328z"/>
		<path d="M314.032,316.618c8.753,2.426,13.26,9.351,13.567,19.771c0.344,11.654-6.762,22.775-17.582,27.515
			c-11.124,4.874-23.385,2.552-32.373-6.131c-7.958-7.687-10.606-20.561-6.623-31.084c1.109-2.93,2.59-4.115,5.73-2.713
			c-0.833,3.603-2.163,7.221-2.382,10.905c-0.215,3.618,0.7,7.303,1.784,11.03c1.782-9.816,5.424-18.382,14.529-22.96
			c8.581-4.314,17.648-6.247,27.317-1.351C316.787,320.078,315.575,318.556,314.032,316.618z"/>
		<path d="M349.571,364.431c-0.591-1.482-0.921-2.31-1.307-3.275c3.541-1.183,5.516,0.392,7.191,3.33
			c5.866,10.287,4.658,24.314-3.033,33.307c-8.086,9.454-21.282,12.872-32.691,8.466c-11.439-4.418-19.133-15.615-18.925-27.526
			c0.053-3.036,0.201-5.951,4.431-4.908c0.616,4.911,1.225,9.76,1.834,14.61c0.456,0.062,0.913,0.125,1.369,0.187
			c0.538-10.19,5-18.004,13.479-23.356C330.584,359.799,339.539,360.159,349.571,364.431z"/>
		<path d="M228.448,311.766c-12.819-0.074-24.145-8.557-27.656-20.714c-3.677-12.731,1.442-26.262,12.54-33.144
			c11.226-6.962,25.658-5.619,35.248,3.173c2.634,2.415,3.268,4.039,1.117,7.857c-5.636,10.003-6.834,20.898-2.134,31.797
			c1.184,2.746,0.823,4.599-1.734,5.687c-5.558,2.365-11.221,4.484-16.842,6.703C228.807,312.671,228.627,312.218,228.448,311.766z
			 M207.24,292.586c0.535-10.43,4.824-18.478,13.714-23.767c8.753-5.208,17.82-4.543,27.646-0.494
			c-8.788-11.372-23.021-13.355-34.066-5.491C204.961,269.649,201.444,283.527,207.24,292.586z"/>
		<path d="M284.689,423.106c0.526,5.028,1.016,9.712,1.506,14.396c0.48,0.007,0.959,0.014,1.439,0.021
			c0.344-1.847,0.671-3.697,1.035-5.539c1.972-9.986,10.942-19.009,20.81-20.723c1.353-0.235,2.872,0.314,4.286,0.63
			c5.796,1.295,11.617,2.506,17.347,4.052c1.574,0.425,3.629,1.602,4.164,2.951c4.171,10.503,0.876,23.301-7.698,31.156
			c-8.772,8.037-21.517,10.004-32.15,4.962c-10.544-5-17.21-16.163-16.846-27.48C278.746,422.426,282.09,423.463,284.689,423.106z"
			/>
		<path d="M312.824,307.119c5.937-10.926,7.532-21.779,3.266-33.249c-0.384-1.033,0.937-3.404,2.111-4.203
			c7.556-5.145,15.807-5.743,24.389-2.99c1.226,0.393,2.384,0.997,3.924,1.652c-6.165-11.648-22.015-13.357-35.514-4.179
			c-4.304-2.379-2.118-4.33,0.532-6.004c10.384-6.556,21.038-7.005,31.685-0.784c10.177,5.946,15.599,17.495,13.534,29.599
			c-2.035,11.924-9.156,19.845-20.752,23.378C328.107,312.741,320.546,311.597,312.824,307.119z"/>
		<path d="M264.553,321.202c-4.294,18.392-4.147,20.998,1.843,34.709c-6.196,8.177-17.727,11.687-28.765,8.755
			c-10.93-2.903-19.791-12.745-21.159-23.599c-0.835-6.623,0.02-12.953,3.306-18.897c1.42-2.569,3.058-3.868,5.936-2.242
			c-5.582,12.845-6.03,17.013-2.26,25.612c1.552-12.664,6.9-21.878,18.668-26.15C249.733,316.628,257.137,317.255,264.553,321.202z"
			/>
		<path d="M330.446,319.074c9.546-0.906,16.481-5.422,23.681-10.146c3.212-2.108,9.098-0.223,13.761,0.032
			c1.749,0.096,3.347,2.237,5.326-0.207c0.354-0.437,4.52,0.929,5.336,2.367c6.343,11.172,3.314,26.077-6.744,35.072
			c-9.527,8.52-25.122,9.607-35.236,2.284c-1.1-0.797-2.291-2.669-2.115-3.842C335.755,335.978,334.891,327.697,330.446,319.074z"/>
		<path d="M293.515,374.292c-0.893,9.17,1.074,17.729,6.144,25.641c0.714,1.115,0.14,3.81-0.78,5.103
			c-6.249,8.786-18.725,13.204-29.369,10.423c-11.871-3.101-19.632-10.662-21.823-22.792c-0.852-4.72,0.269-9.849,0.813-14.756
			c0.451-4.071,3.039-6.009,7.632-5.765c-4.838,7.887-6.53,16.003-2.519,25.573C258.839,372.917,271.763,365.537,293.515,374.292z"
			/>
		<path d="M240.673,198.834c10.556,0.358,18.799,4.361,24.395,12.99c0.776,1.196,0.735,3.885-0.099,5.016
			c-6.974,9.458-9.107,19.797-6.792,31.268c0.28,1.387-0.494,3.834-1.552,4.444c-1.522,0.877-4.369,1.398-5.584,0.546
			c-9.139-6.41-19.064-8.283-29.964-6.664c-1.354,0.201-3.596-1.282-4.436-2.612c-6.02-9.525-6.467-19.538-1.214-29.472
			C220.807,204.177,229.642,199.289,240.673,198.834z M219.141,238.708c3.215-22.708,16.519-30.631,41.028-24.943
			c-6.805-9.988-20.865-12.648-31.865-6.028C217.948,213.969,213.678,227.731,219.141,238.708z"/>
		<path d="M392.031,257.367c-8.567-12.601-24.07-12.987-37.97-1.29c-1.061-0.954-2.15-1.933-3.211-2.887
			c7.252-10.979,24.489-13.935,36.8-6.499c13.193,7.969,17.976,24.925,10.855,38.482c-7.135,13.583-23.318,19.499-36.772,13.24
			c0.976-3.933,2.971-7.983,2.732-11.897c-0.418-6.86-1.628-13.816-3.657-20.374c-1.045-3.376-0.548-4.85,1.969-6.525
			c7.854-5.225,16.194-6.716,25.205-3.472C389.152,256.567,390.365,256.869,392.031,257.367z"/>
		<path d="M300.527,255.439c-8.694-5.121-19.148-6.908-30.364-3.401c-0.852,0.266-3.053-1.491-3.547-2.737
			c-6.029-15.197,3.141-33.157,19.116-37.762c19.775-5.701,38.722,9.737,37.285,30.277c-0.188,2.691-1.04,3.78-3.735,4.813
			C313.161,248.974,307.362,252.16,300.527,255.439z M272.348,249.911c0.798-10.982,5.051-19.121,14.007-24.334
			c8.747-5.092,17.835-4.457,27.81-0.215c-9.091-11.126-22.272-13.399-33.085-6.558C270.767,225.328,266.83,238.239,272.348,249.911
			z"/>
		<path d="M291.455,202.548c-2.926,0.586-4.82,0.966-6.929,1.389c-11.314-27.452-24.305-53.685-46.379-74.764
			c6.923-1.734,13.427-3.363,20.715-5.189c3.201,6.086,7.295,12.269,9.835,19.037c5.233,13.941,16.096,18.134,29.463,18.827
			c2.392,0.124,4.785,0.221,7.159,1.34c-8.785,2.704-17.605,2.072-26.597-0.132C283.019,176.382,287.178,189.282,291.455,202.548z"
			/>
		<path d="M362.332,228.064c-7.542-11.274-21.073-13.153-35.018-4.907c-0.751-1.127-1.518-2.276-2.473-3.708
			c8.904-6.755,18.351-8.292,28.474-4.479c9.119,3.435,14.963,10.029,17.885,19.78c-10.594,1.023-19.191,4.896-26.059,12.422
			c-0.687,0.753-2.423,1.088-3.497,0.845c-3.561-0.807-7.042-1.967-10.695-3.032c-0.188-3.768-0.622-7.598-0.437-11.398
			c0.064-1.321,1.402-2.934,2.602-3.788c7.637-5.431,16.022-6.041,24.801-3.383c0.795,0.241,1.537,0.651,2.316,0.951
			C360.812,227.591,361.411,227.762,362.332,228.064z"/>
	</g>
</g>
</svg>
